<svg xmlns="http://www.w3.org/2000/svg" width="1024" height="1024" viewBox="0 0 1024 1024">
  <defs>
    <radialGradient id="tile" cx="512" cy="430" r="870" gradientUnits="userSpaceOnUse">
      <stop offset="0"    stop-color="#241C09"/>
      <stop offset="0.55" stop-color="#120E05"/>
      <stop offset="1"    stop-color="#070809"/>
    </radialGradient>
    <linearGradient id="boltLight" x1="324" y1="225" x2="720" y2="403" gradientUnits="userSpaceOnUse">
      <stop offset="0" stop-color="#FFF085"/>
      <stop offset="1" stop-color="#FACC15"/>
    </linearGradient>
    <linearGradient id="boltDark" x1="436" y1="225" x2="720" y2="819" gradientUnits="userSpaceOnUse">
      <stop offset="0" stop-color="#EAB308"/>
      <stop offset="1" stop-color="#B8860B"/>
    </linearGradient>
  </defs>

  <path d="M0,0h1024v1024h-1024z" fill="url(#tile)"/>

  <path d="M512,342a170,170 0 1,1 -0.2,0z" fill="none" stroke="#FACC15" stroke-opacity="0.282" stroke-width="14"/>
  <path d="M512,222a290,290 0 1,1 -0.2,0z" fill="none" stroke="#FACC15" stroke-opacity="0.180" stroke-width="12"/>
  <path d="M512,92a420,420 0 1,1 -0.2,0z"  fill="none" stroke="#FACC15" stroke-opacity="0.090" stroke-width="12"/>

  <path d="M567,247L336,593.5L487.8,593.5L448.2,841L732,494.5L563.7,494.5Z" fill="#0A0803" fill-opacity="0.6"/>
  <path d="M555,225L324,571.5L475.8,571.5L436.2,819Z" fill="url(#boltLight)"/>
  <path d="M555,225L436.2,819L720,472.5L551.7,472.5Z" fill="url(#boltDark)"/>
</svg>
